<svg xmlns="http://www.w3.org/2000/svg" width="64" height="64" fill="none" viewBox="0 0 64 64">
  <path fill="#111" d="M0 0h64v48L48 64H0V0z"/>
  <path fill="#fff" d="M 40.3316 42.8391 L 40.3316 43.4534 L 47.6789 43.4534 L 49.0964 39.1064 L 50.5376 39.1064 L 47.7734 48.2966 L 35.8429 48.2966 C 37.7327 44.8946 39.1621 41.4689 40.1308 38.0196 C 41.0993 34.5704 41.5837 31.2079 41.5837 27.9318 C 41.5837 23.5691 40.8316 20.2773 39.3275 18.0566 C 37.8234 15.8359 35.5908 14.7254 32.6299 14.7254 C 29.6531 14.7254 27.4126 15.828 25.9085 18.0329 C 24.4044 20.238 23.6524 23.5376 23.6524 27.9318 C 23.6524 31.2236 24.1327 34.5783 25.0934 37.9961 C 26.0542 41.4139 27.4874 44.8473 29.3932 48.2966 L 17.4389 48.2966 L 14.6984 39.1064 L 16.1396 39.1064 L 17.5334 43.4534 L 24.9044 43.4534 L 24.9044 42.8391 C 22.3057 39.9569 20.4394 37.3188 19.3054 34.9248 C 18.1714 32.5309 17.6044 30.0818 17.6044 27.5774 C 17.6044 23.3723 19.0454 19.8796 21.9277 17.0997 C 24.8099 14.3199 28.3774 12.9299 32.6299 12.9299 C 36.8822 12.9299 40.4457 14.3239 43.3201 17.1116 C 46.1944 19.8994 47.6317 23.388 47.6317 27.5774 C 47.6317 30.066 47.0686 32.4993 45.9425 34.8776 C 44.8164 37.2559 42.946 39.9098 40.3316 42.8391 L 40.3316 42.8391 z"/>
</svg>
