<?xml version="1.0" ?><!DOCTYPE svg  PUBLIC '-//W3C//DTD SVG 1.1//EN'  'http://www.w3.org/Graphics/SVG/1.1/DTD/svg11.dtd'><svg enable-background="new 0 0 48 48" height="48px" id="Layer_4" version="1.1" viewBox="0 0 48 48" width="48px" xml:space="preserve" xmlns="http://www.w3.org/2000/svg" xmlns:xlink="http://www.w3.org/1999/xlink"><polygon points="10.75,19.225 10.75,4.95 29.884,4.95 29.884,12.125 37.059,12.125 37.059,19.225 41.842,19.225 41.842,12.125   41.842,9.563 32.446,0.167 29.884,0.167 5.967,0.167 5.967,19.225 "/><polygon points="37.059,43.217 10.75,43.217 5.967,43.217 5.967,48 41.842,48 41.842,43.217 "/><g><path d="M10.536,39.596c-4.999,0-7.496-2.742-7.496-8.23c0-2.728,0.68-4.812,2.04-6.253c1.359-1.44,3.307-2.161,5.845-2.161   c1.857,0,3.523,0.363,4.998,1.09l-1.292,3.39c-0.69-0.277-1.332-0.505-1.925-0.683c-0.593-0.177-1.187-0.267-1.78-0.267   c-2.279,0-3.419,1.619-3.419,4.855c0,3.139,1.14,4.71,3.419,4.71c0.842,0,1.623-0.111,2.341-0.337   c0.718-0.224,1.436-0.577,2.154-1.056v3.747c-0.709,0.451-1.424,0.763-2.147,0.935C12.549,39.51,11.638,39.596,10.536,39.596z"/><path d="M30.34,34.54c0,1.646-0.572,2.9-1.716,3.763c-1.145,0.862-2.855,1.293-5.134,1.293c-1.168,0-2.164-0.08-2.987-0.236   c-0.824-0.158-1.594-0.391-2.312-0.698v-3.618c0.814,0.383,1.731,0.703,2.75,0.964c1.021,0.258,1.917,0.387,2.694,0.387   c1.589,0,2.383-0.461,2.383-1.379c0-0.346-0.104-0.625-0.316-0.841c-0.208-0.214-0.573-0.458-1.09-0.733   c-0.519-0.271-1.206-0.59-2.068-0.954c-1.235-0.517-2.142-0.994-2.721-1.437c-0.58-0.439-1.001-0.945-1.265-1.515   c-0.263-0.568-0.395-1.271-0.395-2.104c0-1.427,0.552-2.529,1.659-3.31c1.105-0.781,2.672-1.17,4.704-1.17   c1.934,0,3.813,0.42,5.644,1.264l-1.323,3.159c-0.804-0.345-1.556-0.627-2.254-0.847c-0.698-0.221-1.412-0.33-2.14-0.33   c-1.292,0-1.938,0.349-1.938,1.049c0,0.393,0.208,0.733,0.624,1.019c0.418,0.288,1.328,0.713,2.736,1.277   c1.255,0.508,2.174,0.982,2.758,1.422c0.585,0.44,1.014,0.948,1.293,1.522C30.203,33.06,30.34,33.746,30.34,34.54z"/><path d="M44.96,34.54c0,1.646-0.572,2.9-1.716,3.763c-1.146,0.862-2.854,1.293-5.135,1.293c-1.167,0-2.163-0.08-2.987-0.236   c-0.824-0.158-1.594-0.391-2.311-0.698v-3.618c0.812,0.383,1.729,0.703,2.749,0.964c1.02,0.258,1.918,0.387,2.691,0.387   c1.59,0,2.386-0.461,2.386-1.379c0-0.346-0.105-0.625-0.316-0.841c-0.211-0.214-0.574-0.458-1.092-0.733   c-0.519-0.271-1.208-0.59-2.066-0.954c-1.237-0.517-2.144-0.994-2.722-1.437c-0.582-0.439-1.001-0.945-1.266-1.515   c-0.263-0.568-0.395-1.271-0.395-2.104c0-1.427,0.554-2.529,1.66-3.31c1.104-0.781,2.674-1.17,4.701-1.17   c1.937,0,3.816,0.42,5.645,1.264l-1.321,3.159c-0.803-0.345-1.555-0.627-2.255-0.847c-0.699-0.221-1.411-0.33-2.141-0.33   c-1.291,0-1.937,0.349-1.937,1.049c0,0.393,0.208,0.733,0.623,1.019c0.417,0.288,1.33,0.713,2.736,1.277   c1.255,0.508,2.173,0.982,2.759,1.422c0.583,0.44,1.013,0.948,1.293,1.522C44.822,33.06,44.96,33.746,44.96,34.54z"/></g></svg>