<?xml version="1.0" ?><svg id="Layer_1" style="enable-background:new 0 0 512 512;" version="1.1" viewBox="0 0 512 512" xml:space="preserve" xmlns="http://www.w3.org/2000/svg" xmlns:xlink="http://www.w3.org/1999/xlink"><g id="XMLID_3065_"><polygon id="XMLID_3066_" points="339.7,6 339.7,112.8 448.3,112.8  "/><polygon id="XMLID_3068_" points="177.7,323.4 168.7,350.6 186.8,350.6 177.9,323.4  "/><polygon id="XMLID_3101_" points="294,323.4 293.7,323.4 284.7,350.6 302.8,350.6  "/><path d="M367.6,338.6L367.6,338.6c0-49.1-39.8-88.9-88.9-88.9h-215v177.8h215   C327.8,427.5,367.6,387.7,367.6,338.6z M140.6,355.6c0,6.6-2,11.9-6,15.8c-4,3.9-9.2,5.9-15.7,5.9c-6.8,0-12.2-1.7-16.2-5.2   c-4-3.5-5.9-8.5-5.7-15.2l0.1-0.3h11.1c0,3.9,0.9,6.8,2.8,8.7c1.9,1.9,4.5,2.8,7.8,2.8c3,0,5.5-1.1,7.4-3.4   c1.9-2.3,2.9-5.3,2.9-9.1v-48.3h11.5V355.6z M195.2,376.3l-5.3-16.1h-24.5l-5.3,16.1h-11.9l24.1-69h10.9l23.8,69H195.2z M230,376.3   l-24.6-69h12.3l16.4,50.3l1.2,5h0.3l1.2-4.9l16.5-50.4h12.3l-24.6,69H230z M264.3,376.3l24.1-69h10.9l23.8,69h-11.9l-5.3-16.1   h-24.5l-5.3,16.1H264.3z" id="XMLID_3104_"/><path d="M327.7,6.3H81v231.3h197.7c55.6,0,100.9,45.3,100.9,100.9c0,55.6-45.3,100.9-100.9,100.9H81V506h366.7   l0.6-381.2H327.7V6.3z" id="XMLID_3119_"/></g></svg>